<?xml version="1.0" encoding="UTF-8" standalone="no"?><!DOCTYPE svg PUBLIC "-//W3C//DTD SVG 1.1//EN" "http://www.w3.org/Graphics/SVG/1.1/DTD/svg11.dtd"><svg width="100%" height="100%" viewBox="0 0 136 136" version="1.1" xmlns="http://www.w3.org/2000/svg" xmlns:xlink="http://www.w3.org/1999/xlink" xml:space="preserve" xmlns:serif="http://www.serif.com/" style="fill-rule:evenodd;clip-rule:evenodd;stroke-linejoin:round;stroke-miterlimit:2;"><path d="M68,0c37.53,0 68,30.47 68,68c0,37.53 -30.47,68 -68,68c-37.53,0 -68,-30.47 -68,-68c0,-37.53 30.47,-68 68,-68Zm-11.283,56.717l-24.371,0c-6.227,0 -11.282,5.056 -11.282,11.283c-0,6.227 5.055,11.283 11.282,11.283l24.371,-0l0,24.371c0,6.227 5.056,11.282 11.283,11.282c6.227,0 11.283,-5.055 11.283,-11.282l-0,-24.371l24.371,-0c6.227,-0 11.282,-5.056 11.282,-11.283c0,-6.227 -5.055,-11.283 -11.282,-11.283l-24.371,0l-0,-24.371c-0,-6.227 -5.056,-11.282 -11.283,-11.282c-6.227,-0 -11.283,5.055 -11.283,11.282l0,24.371Z"/></svg>