<?xml version="1.0" encoding="UTF-8" standalone="no"?>
<!DOCTYPE svg PUBLIC "-//W3C//DTD SVG 1.1//EN" "http://www.w3.org/Graphics/SVG/1.1/DTD/svg11.dtd">
<svg width="100%" height="100%" viewBox="0 0 392 392" version="1.1" xmlns="http://www.w3.org/2000/svg" xmlns:xlink="http://www.w3.org/1999/xlink" xml:space="preserve" xmlns:serif="http://www.serif.com/" style="fill-rule:evenodd;clip-rule:evenodd;stroke-linejoin:round;stroke-miterlimit:2;">
    <g>
        <path d="M148.542,148.542L148.542,47C148.542,21.042 169.625,0 195.583,0C221.5,0 242.584,21.042 242.584,47L242.584,148.542L344.125,148.542C370.084,148.542 391.125,169.625 391.125,195.583C391.125,221.5 370.084,242.584 344.125,242.584L242.584,242.584L242.584,344.125C242.584,370.084 221.5,391.125 195.583,391.125C169.625,391.125 148.542,370.084 148.542,344.125L148.542,242.584L47,242.584C21.042,242.584 0,221.5 0,195.583C0,169.625 21.042,148.542 47,148.542L148.542,148.542Z"/>
    </g>
</svg>
