<?xml version="1.0" encoding="UTF-8" standalone="no"?><!DOCTYPE svg PUBLIC "-//W3C//DTD SVG 1.1//EN" "http://www.w3.org/Graphics/SVG/1.1/DTD/svg11.dtd"><svg width="100%" height="100%" viewBox="0 0 170 236" version="1.1" xmlns="http://www.w3.org/2000/svg" xmlns:xlink="http://www.w3.org/1999/xlink" xml:space="preserve" xmlns:serif="http://www.serif.com/" style="fill-rule:evenodd;clip-rule:evenodd;stroke-linejoin:round;stroke-miterlimit:2;"><path d="M93.3,4.5c-2,-2.8 -5.3,-4.5 -8.7,-4.5c-3.5,0 -6.7,1.7 -8.8,4.5c-21.6,30.2 -75.8,109.6 -75.8,146.9c0,46.7 37.9,84.6 84.6,84.6c46.7,0 84.6,-37.9 84.6,-84.6c-0,-37.3 -54.2,-116.7 -75.9,-146.9Zm-38.4,194.8c-2.3,2.7 -5.6,4.2 -9,4.2c-2.6,0 -5.3,-0.9 -7.6,-2.7c-33.3,-28.1 -21.8,-69.5 -21.3,-71.3c1.8,-6.2 8.3,-9.8 14.5,-8c6.2,1.8 9.8,8.3 8,14.5c-0.4,1.3 -7.6,28.8 13.9,46.9c5,4 5.7,11.4 1.5,16.4Zm23.1,23.3c-6.9,-0 -12.5,-5.6 -12.5,-12.5c-0,-6.9 5.6,-12.5 12.5,-12.5c6.9,-0 12.5,5.6 12.5,12.5c-0,6.9 -5.6,12.5 -12.5,12.5Z" style="fill-rule:nonzero;"/></svg>