<?xml version="1.0" encoding="UTF-8" standalone="no"?><!DOCTYPE svg PUBLIC "-//W3C//DTD SVG 1.1//EN" "http://www.w3.org/Graphics/SVG/1.1/DTD/svg11.dtd"><svg width="100%" height="100%" viewBox="0 0 945 869" version="1.1" xmlns="http://www.w3.org/2000/svg" xmlns:xlink="http://www.w3.org/1999/xlink" xml:space="preserve" xmlns:serif="http://www.serif.com/" style="fill-rule:evenodd;clip-rule:evenodd;stroke-linejoin:round;stroke-miterlimit:2;"><path d="M471.916,0c-261.908,0 -470.646,192.985 -470.646,431.262c-0,74.83 21.661,145.723 57.108,208.738c5.907,9.846 7.876,21.662 3.938,33.477l-61.046,167.385c-5.908,15.753 9.846,29.538 25.6,25.6l169.354,-64.985c9.846,-3.939 21.661,-1.969 33.477,3.938c70.892,39.385 155.569,63.016 246.153,63.016c257.97,-1.969 468.677,-192.985 468.677,-433.231c-1.969,-242.215 -212.677,-435.2 -472.615,-435.2Zm-236.308,512c-43.323,0 -78.769,-35.446 -78.769,-78.769c0,-43.323 35.446,-78.769 78.769,-78.769c43.323,-0 78.77,35.446 78.77,78.769c-0,43.323 -35.447,78.769 -78.77,78.769Zm236.308,0c-43.323,0 -78.769,-35.446 -78.769,-78.769c-0,-43.323 35.446,-78.769 78.769,-78.769c43.323,-0 78.769,35.446 78.769,78.769c0,43.323 -35.446,78.769 -78.769,78.769Zm236.308,0c-43.323,0 -78.77,-35.446 -78.77,-78.769c0,-43.323 35.447,-78.769 78.77,-78.769c43.323,-0 78.769,35.446 78.769,78.769c-0,43.323 -35.446,78.769 -78.769,78.769Z" style="fill-rule:nonzero;"/></svg>