<?xml version="1.0" encoding="UTF-8" standalone="no"?>
<!DOCTYPE svg PUBLIC "-//W3C//DTD SVG 1.1//EN" "http://www.w3.org/Graphics/SVG/1.1/DTD/svg11.dtd">
<svg width="100%" height="100%" viewBox="0 0 301 301" version="1.1" xmlns="http://www.w3.org/2000/svg" xmlns:xlink="http://www.w3.org/1999/xlink" xml:space="preserve" xmlns:serif="http://www.serif.com/" style="fill-rule:evenodd;clip-rule:evenodd;stroke-linejoin:round;stroke-miterlimit:2;">
    <path d="M150.45,204.998C120.325,204.998 95.907,180.576 95.907,150.451C95.907,120.327 120.325,95.906 150.45,95.906C180.575,95.906 204.996,120.327 204.996,150.451C204.996,177.852 184.792,200.534 158.469,204.412C155.852,204.798 153.174,204.998 150.45,204.998ZM296.168,182.416C306.82,151.704 296.168,122.875 296.168,122.875L261.069,113.787C261.177,114.176 258.362,106.375 256.494,102.271L276.088,70.016C261.907,40.767 233.987,27.915 233.987,27.915L202.745,46.307C203.118,46.519 195.657,43.012 191.367,41.401L182.415,4.735C151.705,-5.919 122.874,4.735 122.874,4.735L113.787,39.833C114.177,39.725 106.375,42.541 102.272,44.408L70.016,24.813C40.767,38.994 27.916,66.914 27.916,66.914L46.306,98.157C46.518,97.783 43.011,105.246 41.402,109.535L4.736,118.488C-5.919,149.198 4.736,178.028 4.736,178.028C4.736,178.028 39.622,186.34 39.521,185.953C40.907,190.295 42.541,194.527 44.409,198.632L24.812,230.885C38.993,260.137 66.913,272.989 66.913,272.989C66.913,272.989 97.414,254.167 97.044,253.953C101.075,256.04 105.246,257.891 109.536,259.503L118.488,296.169C149.198,306.821 178.027,296.169 178.027,296.169L187.114,261.071C186.726,261.178 194.525,258.363 198.631,256.493L230.887,276.089C260.136,261.908 272.988,233.988 272.988,233.988L254.594,202.746C254.383,203.119 257.889,195.655 259.501,191.369L296.168,182.416Z" style="fill-rule:nonzero;"/>
</svg>
