<?xml version="1.0" encoding="UTF-8" standalone="no"?><!DOCTYPE svg PUBLIC "-//W3C//DTD SVG 1.1//EN" "http://www.w3.org/Graphics/SVG/1.1/DTD/svg11.dtd"><svg width="100%" height="100%" viewBox="0 0 120 120" version="1.1" xmlns="http://www.w3.org/2000/svg" xmlns:xlink="http://www.w3.org/1999/xlink" xml:space="preserve" xmlns:serif="http://www.serif.com/" style="fill-rule:evenodd;clip-rule:evenodd;stroke-linejoin:round;stroke-miterlimit:2;"><rect id="Artboard1" x="0" y="0" width="120" height="120" style="fill:none;"/><path d="M26.9,33.013c-0.4,0.2 -0.2,0.8 0.3,0.8l31.5,-3.8c0.2,0 0.4,-0.2 0.4,-0.4l0,-14.2c0,-0.3 -0.3,-0.5 -0.5,-0.4c-0.5,0.1 -0.9,0.3 -1.4,0.6l-30.3,17.4Zm7.5,38.9c0.1,0.3 0.6,0.3 0.7,0l22.7,-39.3c0.2,-0.3 -0.1,-0.7 -0.4,-0.6l-34.8,4.2c-0.7,0.1 -1.3,0.5 -1.7,1.1c-0.3,0.6 -0.4,1.4 -0.1,2l13.6,32.6Zm-1.4,2.7c0.2,-0.1 0.3,-0.3 0.2,-0.5l-12.2,-29.4c-0.2,-0.4 -0.8,-0.3 -0.8,0.2l0,34.8c0,0.5 0.1,1 0.2,1.5c0.1,0.3 0.4,0.4 0.6,0.3l12,-6.9Zm20.1,27.3c0.4,0.2 0.8,-0.2 0.5,-0.6l-19.1,-25c-0.1,-0.2 -0.3,-0.2 -0.5,-0.1l-12,6.8c-0.2,0.1 -0.3,0.5 -0.1,0.7c0.3,0.4 0.7,0.7 1.2,0.9l30,17.3Zm6.8,3.1l0.2,0c0.6,0 1.3,-0.3 1.7,-0.9l21.2,-27.7c0.2,-0.3 -0,-0.7 -0.3,-0.7l-45.4,0c-0.3,0 -0.5,0.4 -0.3,0.7l21.2,27.7c0.4,0.5 1,0.9 1.7,0.9Zm25.6,-28.7l-19.1,25c-0.3,0.4 0.1,0.8 0.5,0.6l30.1,-17.4c0.4,-0.2 0.8,-0.5 1.2,-0.9c0.2,-0.2 0.1,-0.5 -0.1,-0.7l-12,-6.8c-0.3,0 -0.5,0.1 -0.6,0.2Zm1.5,-1.7l12,6.8c0.2,0.1 0.5,0 0.6,-0.3c0.1,-0.5 0.2,-1 0.2,-1.5l-0,-34.8c-0,-0.4 -0.6,-0.6 -0.8,-0.2l-12.2,29.5c-0.1,0.1 -0,0.4 0.2,0.5Zm-2.1,-2.6c0.2,0.3 0.6,0.3 0.7,0l13.6,-32.5c0.3,-0.6 0.2,-1.4 -0.1,-2c-0.4,-0.6 -1,-1 -1.7,-1.1l-34.8,-4.4c-0.3,0 -0.6,0.3 -0.4,0.6l22.7,39.4Zm-23.6,-42l31.5,3.8c0.4,0.1 0.6,-0.5 0.3,-0.8l-30.3,-17.4c-0.4,-0.3 -0.8,-0.5 -1.3,-0.6c-0.3,-0.1 -0.5,0.1 -0.5,0.4l-0,14.1c-0.1,0.3 0.1,0.4 0.3,0.5Zm21.7,42.8l-22.5,-39c-0.2,-0.4 -0.8,-0.4 -1,0l-22.5,39c-0.2,0.4 0.1,0.9 0.5,0.9l45.1,0c0.4,0 0.6,-0.5 0.4,-0.9Z" style="fill:#fff;fill-rule:nonzero;"/></svg>