<?xml version="1.0" encoding="UTF-8" standalone="no"?><!DOCTYPE svg PUBLIC "-//W3C//DTD SVG 1.1//EN" "http://www.w3.org/Graphics/SVG/1.1/DTD/svg11.dtd"><svg width="100%" height="100%" viewBox="0 0 18 18" version="1.1" xmlns="http://www.w3.org/2000/svg" xmlns:xlink="http://www.w3.org/1999/xlink" xml:space="preserve" xmlns:serif="http://www.serif.com/" style="fill-rule:evenodd;clip-rule:evenodd;stroke-linejoin:round;stroke-miterlimit:2;"><path d="M3,0c-1.646,0 -3,1.354 -3,3l0,12c0,1.646 1.354,3 3,3l12,0c1.646,0 3,-1.354 3,-3l0,-12c0,-1.646 -1.354,-3 -3,-3l-12,0Zm4,5c0,-0.549 0.451,-1 1,-1l6,0c0.549,0 1,0.451 1,1c0,0.549 -0.451,1 -1,1l-6,0c-0.549,0 -1,-0.451 -1,-1Zm0,4c0,-0.549 0.451,-1 1,-1l6,0c0.549,0 1,0.451 1,1c0,0.549 -0.451,1 -1,1l-6,0c-0.549,0 -1,-0.451 -1,-1Zm0,4c0,-0.549 0.451,-1 1,-1l6,0c0.549,0 1,0.451 1,1c0,0.549 -0.451,1 -1,1l-6,0c-0.549,0 -1,-0.451 -1,-1Zm-3,-9c-0.549,0 -1,0.451 -1,1c0,0.549 0.451,1 1,1l0.001,0c0.549,0 1,-0.451 1,-1c0,-0.549 -0.451,-1 -1,-1l-0.001,0Zm-1,5c0,-0.549 0.451,-1 1,-1l0.001,0c0.549,0 1,0.451 1,1c0,0.549 -0.451,1 -1,1l-0.001,0c-0.549,0 -1,-0.451 -1,-1Zm1,3c-0.549,0 -1,0.451 -1,1c0,0.549 0.451,1 1,1l0.001,0c0.549,0 1,-0.451 1,-1c0,-0.549 -0.451,-1 -1,-1l-0.001,0Z"/></svg>