<?xml version="1.0" encoding="UTF-8" standalone="no"?>
<!DOCTYPE svg PUBLIC "-//W3C//DTD SVG 1.1//EN" "http://www.w3.org/Graphics/SVG/1.1/DTD/svg11.dtd">
<svg width="100%" height="100%" viewBox="0 0 90 90" version="1.1" xmlns="http://www.w3.org/2000/svg" xmlns:xlink="http://www.w3.org/1999/xlink" xml:space="preserve" xmlns:serif="http://www.serif.com/" style="fill-rule:evenodd;clip-rule:evenodd;stroke-linejoin:round;stroke-miterlimit:2;">
    <rect x="-0" y="0" width="89.839" height="90" style="fill:rgb(207,167,121);"/>
    <g transform="matrix(1.52888,0,0,1.52888,-47.5993,-32.0281)">
        <g opacity="0.1">
            <g transform="matrix(1.3346,1.3346,-1.3346,1.3346,-123.267,-219.031)">
                <rect x="159.565" y="21.82" width="3.696" height="3.696"/>
            </g>
            <g transform="matrix(2.12261,0,0,2.12261,-283.053,-25.8707)">
                <path d="M175.703,49.791L148.069,49.791C148.069,49.791 147.957,35.927 148.069,34.73C148.18,33.534 148.952,31.39 149.666,29.865C150.802,27.439 152.9,26.348 152.9,26.348C152.9,26.348 152.682,27.69 153.577,28.564C154.472,29.438 155.977,29.133 155.977,29.133C155.977,29.133 154.861,28.584 154.273,27.553C153.685,26.522 154.948,25.516 154.948,25.516C154.948,25.516 154.308,27.641 156.438,27.687C158.568,27.734 157.892,25.516 157.892,25.516C157.892,25.516 159.168,26.51 160.048,27.532C160.846,28.459 161.729,29.917 161.886,30.18C162.043,29.917 162.926,28.459 163.724,27.532C164.603,26.51 165.879,25.516 165.879,25.516C165.879,25.516 165.204,27.734 167.334,27.687C169.463,27.641 168.823,25.516 168.823,25.516C168.823,25.516 170.086,26.522 169.498,27.553C168.91,28.584 167.795,29.133 167.795,29.133C167.795,29.133 169.3,29.438 170.195,28.564C171.09,27.69 170.871,26.348 170.871,26.348C170.871,26.348 172.97,27.439 174.106,29.865C174.82,31.39 175.591,33.534 175.703,34.73C175.814,35.927 175.703,49.791 175.703,49.791Z"/>
            </g>
        </g>
    </g>
    <g transform="matrix(1.92621,0,0,1.92621,-293.535,-8.89968)">
        <path d="M175.778,45.536L175.778,45.543C176.904,45.543 178.03,45.567 179.153,45.526C179.396,45.518 179.703,45.333 179.839,45.132C179.914,45.019 179.715,44.695 179.605,44.484C179.475,44.235 179.226,44.024 179.17,43.767C178.884,42.433 178.56,41.099 178.413,39.747C178.287,38.593 178.413,37.411 178.372,36.245C178.324,34.862 178.921,33.852 180.005,33.076C180.853,32.469 180.859,32.358 180.057,31.748C178.938,30.893 178.241,29.869 178.363,28.348C178.457,27.155 178.434,25.946 178.368,24.748C178.272,22.972 178.521,21.312 179.636,19.863C179.732,19.738 179.788,19.407 179.728,19.368C179.549,19.243 179.303,19.153 179.085,19.157C178.809,19.163 178.535,19.336 178.262,19.327C176.879,19.278 175.496,19.178 174.112,19.132C173.61,19.116 173.1,19.182 172.6,19.249C172.26,19.294 171.928,19.405 171.593,19.487C171.682,19.765 171.698,20.105 171.87,20.312C172.735,21.355 172.957,22.576 172.948,23.882C172.936,25.376 172.895,26.872 172.961,28.362C173.019,29.673 172.55,30.661 171.57,31.488C170.591,32.315 170.623,32.576 171.628,33.349C172.478,34 173,34.839 172.94,35.946C172.832,37.973 172.752,40.005 172.544,42.021C172.463,42.813 172.074,43.574 171.817,44.346C171.732,44.601 171.483,45.025 171.537,45.064C171.815,45.276 172.163,45.501 172.495,45.516C173.585,45.571 174.68,45.536 175.774,45.536L175.778,45.536ZM176.017,18.032C176.236,17.819 176.402,17.663 176.564,17.501C177.422,16.645 178.274,15.779 179.141,14.931C179.757,14.328 179.761,13.889 179.141,13.289C178.326,12.499 177.516,11.703 176.717,10.896C176.091,10.264 175.832,10.25 175.167,10.878C174.304,11.695 173.44,12.515 172.579,13.334C171.958,13.925 172.009,14.379 172.644,14.96C173.566,15.803 174.437,16.7 175.341,17.562C175.513,17.726 175.733,17.839 176.015,18.034L176.017,18.032Z" style="fill:white;fill-opacity:0.85;fill-rule:nonzero;"/>
    </g>
</svg>
