<svg width="325" height="71" viewBox="0 0 325 71" fill="none" xmlns="http://www.w3.org/2000/svg">
<g clip-path="url(#clip0_1436_80609)">
<path d="M324.784 34.3101C324.784 35.3165 324.905 36.3423 324.751 37.3252C324.575 38.4505 324.227 39.5621 323.823 40.6308C323.364 41.8438 322.751 43.0003 322.216 44.186C321.903 44.8803 322.247 45.4556 322.639 45.9666C323.57 47.1816 323.963 48.6267 323.991 50.0699C324.044 52.7026 322.894 54.8245 320.785 56.4315C320.346 56.7649 320.02 57.3169 319.782 57.8356C318.65 60.3046 317.133 62.3523 314.027 62.756C312.516 62.953 311.119 62.795 309.784 62.1514C308.129 61.3538 307.146 59.9419 306.661 58.1964C306.462 57.4846 306.083 57.1745 305.384 57.1647C300.664 57.0906 295.944 56.9892 291.225 56.9424C287.576 56.9054 283.924 56.9327 280.275 56.9307C274.974 56.9288 269.675 56.9249 264.374 56.9229C252.63 56.919 240.886 56.9151 229.14 56.9132C223.057 56.9132 216.975 56.9229 210.892 56.919C199.211 56.9132 187.531 56.8995 175.853 56.8956C159.21 56.8917 142.567 56.8956 125.924 56.8956C114.528 56.8956 103.131 56.9015 91.7352 56.9093C84.2685 56.9151 76.7999 56.9288 69.3332 56.9346C65.9601 56.9366 62.5851 56.9132 59.212 56.9307C58.5455 56.9346 57.879 57.155 57.2125 57.1452C55.8274 57.1257 54.4422 56.9736 53.0571 56.9639C51.8922 56.9561 50.7272 57.1023 49.5604 57.1218C48.9673 57.1316 48.3703 56.9463 47.7772 56.9561C44.8176 57.0048 41.856 57.0945 38.8964 57.1589C38.2396 57.1725 37.888 57.4339 37.6735 58.1145C36.8776 60.6303 35.3301 62.2997 32.6062 62.7931C30.4599 63.1812 28.6574 62.5356 26.9265 61.4045C26.6657 61.2348 26.4609 60.9657 26.1904 60.8234C25.4621 60.4431 24.871 60.7804 24.9405 61.5878C25.1221 63.7038 24.1195 65.184 22.5894 66.4595C21.8862 67.0465 21.2854 67.7564 20.6479 68.4214C19.539 69.5798 18.3373 70.3853 16.5967 70.1649C15.341 70.0069 14.5567 69.2483 13.8496 68.3824C13.3724 67.7973 12.9165 67.4443 12.136 67.378C9.00443 67.1167 6.6997 65.4961 5.38796 62.6566C4.85283 61.5001 4.53986 60.1466 5.15806 58.8068C5.39375 58.2959 5.58694 57.7186 5.60433 57.1667C5.61978 56.6908 5.44205 56.1584 5.2025 55.7352C4.25974 54.0737 5.5116 51.3277 7.5845 50.6159C8.42873 50.3253 8.80545 49.8573 8.78613 48.9192C8.76681 47.9578 9.02182 46.9905 9.01989 46.0271C9.01409 44.1197 8.90398 42.2105 8.85182 40.3032C8.80545 38.6162 8.81704 36.9254 8.73783 35.2385C8.63544 33.0425 8.55044 30.8388 8.28964 28.6584C8.17373 27.6853 8.01918 26.6497 6.64561 26.2519C5.64103 25.9593 4.76203 25.1246 4.43168 23.8882C4.27326 23.2973 3.79802 22.8448 3.21073 22.4294C1.68841 21.3568 0.631671 19.9351 0.189271 17.979C-0.544843 14.7241 0.902134 12.4326 3.11414 10.4551C4.09746 9.57555 5.44591 9.35517 6.73641 9.28887C8.97159 9.17575 10.6118 8.02123 11.7728 6.25628C12.4895 5.16806 12.9146 3.86141 13.3376 2.60937C13.9848 0.694261 16.2953 -0.413463 18.2176 0.1482C19.4598 0.51094 20.3735 1.14281 20.9512 2.24078C21.3298 2.95846 21.5539 3.76195 21.8302 4.53229C22.6609 6.855 24.5116 8.00172 26.6251 8.91052C27.4094 9.24791 28.1667 9.73742 28.8139 10.2991C29.6794 11.0519 30.0851 11.2098 31.0781 10.7808C32.6352 10.108 34.1768 9.39223 35.7571 8.78181C38.5718 7.69554 41.0717 9.14065 41.232 12.0894C41.2687 12.7564 41.4252 13.4155 41.516 14.0805C41.6397 14.9815 42.2328 15.1668 43.0171 15.1649C46.2028 15.161 49.3904 15.1902 52.576 15.1902C62.4885 15.1941 72.4029 15.1961 82.3154 15.1922C94.2254 15.1883 106.135 15.1746 118.045 15.1785C130.311 15.1805 142.576 15.2 154.84 15.2097C158.798 15.2136 162.759 15.2078 166.717 15.2136C168.251 15.2156 168.529 15.044 168.665 13.4721C168.757 12.3878 169.319 11.672 170.05 10.9914C170.877 10.2211 171.819 9.51899 172.447 8.60044C174.008 6.31479 177.375 6.38889 178.832 8.09338C179.854 9.28887 181.121 10.2679 182.172 11.4419C182.607 11.9275 182.819 12.653 183.028 13.3024C183.583 15.0206 183.318 15.2195 185.285 15.2175C188.729 15.2136 192.172 15.2117 195.616 15.2097C203.342 15.2097 211.067 15.2214 218.791 15.2078C227.127 15.1922 235.461 15.1356 243.797 15.1298C251.361 15.1239 258.926 15.1707 266.489 15.1785C275.501 15.1883 284.515 15.1844 293.528 15.1785C297.936 15.1746 302.347 15.0966 306.755 15.159C309.779 15.2019 312.57 16.2004 315.217 17.6436C318.507 19.4378 320.96 22.0901 322.755 25.3353C323.501 26.6829 324.013 28.204 324.382 29.7076C324.747 31.1937 324.801 32.7578 324.992 34.2887L324.774 34.3101H324.784ZM317.102 30.7315C317.135 31.1664 317.238 31.533 317.792 31.4706L317.765 31.4511C318.312 32.2429 319.193 32.0342 319.766 31.7944C320.381 31.5369 320.993 30.8739 321.252 30.24C321.623 29.3273 321.125 27.9212 320.379 27.7574C319.463 27.5565 318.462 27.7184 317.504 27.7925C317.356 27.8042 317.236 28.1826 317.102 28.3932C316.509 28.951 316.509 30.0704 317.102 30.7335V30.7315ZM10.9865 60.8331C11.0812 60.8155 11.1759 60.7824 11.2705 60.7863C12.3756 60.8156 13.2739 60.367 13.3801 59.6045C13.5849 58.1262 13.5212 57.5801 12.194 56.8371C11.8945 56.6694 11.5449 56.1916 11.5738 55.8932C11.6994 54.61 10.7509 54.2804 9.92594 53.8669C9.74241 53.7753 9.39661 54.019 9.12421 54.1088C9.19376 54.3096 9.20921 54.5593 9.33865 54.7036C9.88151 55.3062 10.1172 55.8581 9.61491 56.6733C9.28456 57.2096 9.31353 57.9604 9.05659 58.5591C8.75136 59.271 9.28456 59.9516 9.06239 60.5854C8.83829 61.227 9.10682 61.6034 9.44104 62.0461C10.351 63.2494 11.5777 63.7292 13.0092 63.4854C14.2727 63.2709 15.1401 63.7565 15.8587 64.7101C16.0674 64.9871 16.2799 65.264 16.4673 65.5546C17.1434 66.6096 17.4178 66.3815 18.0514 65.6755C18.8164 64.8213 19.624 63.9983 20.4817 63.2436C21.3414 62.4869 21.3801 62.4167 20.4566 61.7244C19.2511 60.8195 18.4359 59.1462 19.0232 57.6289C19.1468 57.3071 19.1352 56.9288 19.168 56.5738C19.2975 55.1638 19.4037 53.7499 19.5486 52.3419C19.794 49.9743 20.0702 47.6106 20.3194 45.245C20.4605 43.9013 20.5609 42.5518 20.702 41.2081C20.955 38.7761 21.2236 36.3442 21.4844 33.9143C21.7413 31.5194 22.0098 29.1265 22.2436 26.7277C22.4155 24.9589 22.516 23.1842 22.6976 21.4173C22.7285 21.1228 22.9391 20.7308 23.1825 20.5962C23.8722 20.214 24.6179 19.9371 25.3462 19.6289C26.5459 19.1199 27.7417 18.5992 28.9607 18.1409C29.1076 18.0863 29.5171 18.3379 29.5789 18.5251C29.9209 19.5353 30.0851 20.6157 30.5101 21.583C31.4374 23.6951 32.7144 25.5907 34.171 27.3849C34.9824 28.3834 35.6566 29.5321 36.2034 30.7022C36.7327 31.8373 37.0901 33.0698 37.4011 34.2906C38.0174 36.6992 38.1391 39.1233 36.8757 41.3777C36.0391 42.8716 34.7177 44.0281 33.0737 44.2933C31.6461 44.5234 30.1276 44.5819 28.6323 44.0261C26.3237 43.168 24.8478 41.6566 24.2064 39.2852C24.0055 38.5402 23.8335 37.7854 23.6346 36.978C23.0724 37.8225 22.9526 38.7059 23.1381 39.605C23.2849 40.3129 23.5669 40.9896 23.791 41.68C24.7261 44.5585 26.9361 46.0251 29.6504 46.6804C31.0259 47.0119 32.471 47.0782 33.9894 46.8734C36.4487 46.5419 38.5274 45.6195 40.4245 44.1314C43.4672 41.7444 44.835 38.3822 45.4126 34.7041C45.7198 32.7461 45.7024 30.6652 45.0127 28.7637C44.3366 26.8993 43.473 25.0876 42.5167 23.3499C41.4677 21.4426 40.1328 19.6972 39.0857 17.7879C38.3188 16.3896 37.7489 14.8665 37.7431 13.201C37.7392 12.1732 37.4359 11.986 36.4931 12.3527C35.3881 12.7837 34.2676 13.1756 33.178 13.6437C30.0194 15.0011 26.8724 16.3896 23.7176 17.7567C23.2945 17.94 23.0086 17.8133 23.0685 17.3004C23.0956 17.0683 23.1786 16.7972 23.3312 16.6353C24.16 15.7519 25.0178 14.8957 25.8659 14.0279C26.7236 13.1483 26.6096 12.692 25.4698 12.3702C25.1356 12.2766 24.8149 12.1342 24.4942 11.9997C21.9963 10.9407 20.0586 9.24206 18.7933 6.81404C18.3779 6.0164 18.0939 5.15051 17.7172 4.33142C17.6264 4.13249 17.4139 3.99208 17.2574 3.82436C17.1106 3.98623 16.9 4.12274 16.8247 4.31386C16.2799 5.71607 15.8356 7.15143 14.9121 8.38592C12.7465 11.282 9.94139 12.9475 6.31912 13.1464C5.13295 13.2108 3.88882 14.6013 3.72268 15.9021C3.43869 18.1468 5.09431 19.9917 7.62121 19.4358C8.30703 19.2857 9.1783 18.3769 9.11069 17.708C9.07591 17.3628 8.73977 17.0488 8.53885 16.7192C8.34373 16.9045 8.16407 17.1092 7.9477 17.2672C7.69076 17.4544 7.34881 17.784 7.1421 17.7216C6.85618 17.6338 6.51231 17.2692 6.45435 16.9688C6.24764 15.9235 7.13437 15.1844 8.18145 15.4281C9.54536 15.746 10.5557 17.6104 9.49899 18.9522C9.06625 19.5002 8.60067 20.0229 8.17759 20.5787C7.39711 21.6025 7.61928 22.3924 8.75909 22.954C10.3278 23.7283 11.4908 25.0096 11.7747 26.6926C12.2191 29.3254 12.5031 32.0108 12.563 34.6807C12.6827 39.9424 12.617 45.208 12.59 50.4697C12.5842 51.4623 12.3814 52.453 12.306 53.4457C12.2133 54.6782 11.9428 55.9946 13.5096 56.6011C13.6236 56.646 13.7433 56.8586 13.7433 56.9931C13.7433 57.9565 14.2939 58.8673 13.8032 59.899C13.3009 60.954 12.0877 61.4396 11.0136 60.8097L10.9846 60.8351L10.9865 60.8331ZM172.09 53.3696V53.3657C189.442 53.3657 206.792 53.3657 224.144 53.3657C238.985 53.3657 253.824 53.3638 268.664 53.3599C281.508 53.356 294.349 53.3423 307.192 53.356C308.005 53.356 308.902 53.0751 309.626 53.7811C309.711 53.865 309.991 53.7655 310.175 53.7265C310.718 53.6095 311.253 53.4632 311.797 53.3599C313.25 53.0829 314.013 54.5612 313.588 55.7372C313.47 56.0648 313.105 56.4003 312.779 56.5192C312.52 56.6128 311.952 56.4666 311.867 56.2735C311.73 55.9615 311.879 55.5227 311.908 55.1365C311.931 54.8381 311.956 54.5398 311.981 54.2414C311.651 54.2628 311.264 54.1809 311 54.3252C309.962 54.8888 309.694 56.4958 310.298 57.6445C311.168 59.3002 312.854 59.6084 314.479 58.8517C315.995 58.1457 317.041 55.7742 316.625 54.6568C316.364 53.9547 316.731 53.9176 317.158 53.8006C317.547 53.6953 317.968 53.6661 318.329 53.5042C320.095 52.7143 320.868 50.5418 320.11 48.6442C319.952 48.2483 319.498 47.9714 319.179 47.6399C319.023 47.9851 318.859 48.3283 318.716 48.6793C318.669 48.7964 318.721 48.966 318.656 49.0596C318.368 49.4731 318.134 50.0426 317.73 50.2356C316.527 50.8109 315.269 51.1249 313.886 50.7368C313.314 50.5769 312.64 50.7836 312.012 50.8421C311.761 50.8655 311.513 50.9845 311.264 50.9865C307.429 51.0118 303.595 51.1854 299.756 51.0781C297.587 51.0177 295.413 51.0274 293.242 51.0294C288.733 51.0294 284.224 51.0937 279.713 51.0781C273.598 51.0567 267.482 51.0723 261.368 51.0664C250.455 51.0567 239.543 51.0294 228.63 51.0333C220.746 51.0372 212.86 51.0976 204.976 51.0996C198.862 51.1015 192.749 51.0391 186.635 51.0333C172.793 51.0177 158.949 51.0118 145.107 51.0138C129.044 51.0157 112.978 51.0313 96.9146 51.0391C88.6732 51.043 80.4337 51.0489 72.1923 51.0508C65.964 51.0508 59.7356 51.045 53.5072 51.045C52.124 51.045 50.7407 51.0625 49.3575 51.0645C47.1378 51.0645 44.9161 51.0469 42.6964 51.0684C42.1265 51.0742 41.5566 51.2634 40.9886 51.2556C39.1958 51.2302 37.405 51.162 35.6122 51.0898C34.4724 51.045 33.3326 50.9748 32.1947 50.8987C31.3408 50.8402 30.4502 50.5672 29.6446 50.731C28.7946 50.9045 28.0566 50.9162 27.2317 50.6686C26.26 50.3799 25.5432 49.6525 25.3713 48.5721C25.3346 48.3342 25.1298 48.1235 25.0023 47.9012C24.7377 48.0865 24.4421 48.2386 24.2238 48.4687C24.1156 48.5838 24.2045 48.8724 24.1098 49.0206C22.9719 50.8031 24.9965 53.7558 26.8878 53.7694C27.5196 53.7733 27.6818 54.0678 27.7108 54.6763C27.7475 55.4603 27.7939 56.2969 28.0875 57.0048C28.9221 59.0155 31.3254 59.8112 32.84 58.8283C34.2773 57.8961 35.0771 55.3393 33.1877 54.3623C32.9462 54.2375 32.6236 54.2745 32.3396 54.2355C32.357 54.5573 32.2488 55.0312 32.4149 55.1716C32.9539 55.628 32.67 55.9595 32.3512 56.2774C32.0228 56.6031 31.7098 56.9502 31.1418 56.529C30.4966 56.0492 30.1295 55.3744 30.4522 54.491C30.6705 53.8962 31.1264 53.4554 31.8702 53.3326C33.1645 53.12 34.4453 54.1068 35.7243 53.3287C43.4807 53.3345 51.2372 53.3423 58.9937 53.3462C73.6412 53.354 88.2887 53.3657 102.936 53.3696C125.987 53.3735 149.037 53.3696 172.088 53.3696H172.09ZM294.252 19.0185V19.0224C291.291 19.0224 288.329 19.0165 285.367 19.0321C285.111 19.0321 284.674 19.1121 284.635 19.2467C284.558 19.5178 284.647 19.8727 284.757 20.1555C284.925 20.5826 285.319 20.9668 285.356 21.3919C285.53 23.4221 285.646 25.4581 285.723 27.4961C285.787 29.1616 285.292 30.5911 283.868 31.6149C283.439 31.9231 283.211 32.3151 283.92 32.7851C285.072 33.5496 285.791 34.6592 285.715 36.1336C285.628 37.8459 285.472 39.5543 285.422 41.2666C285.391 42.3431 285.17 43.3338 284.674 44.2836C284.357 44.892 284.543 45.1709 285.232 45.1748C287.261 45.1865 289.289 45.1865 291.318 45.1729C292.023 45.169 292.148 44.8608 291.899 44.1802C291.623 43.4216 291.302 42.6356 291.246 41.8458C291.063 39.1954 290.976 36.5373 290.881 33.8811C290.86 33.2746 290.995 32.6661 290.991 32.0576C290.974 29.6296 290.916 27.1997 290.904 24.7716C290.9 23.8316 291.119 23.66 292.052 23.662C292.631 23.662 293.211 23.662 293.79 23.6659C296.816 23.6815 299.841 23.6912 302.866 23.7205C303.898 23.7302 305.643 24.8418 305.861 25.8521C306.286 27.8159 305.227 29.5282 303.247 29.9124C300.898 30.3688 298.525 30.4487 296.182 29.9027C295.421 29.7252 295.009 29.928 294.662 30.5657C294.167 31.4687 293.618 32.3404 293.13 33.2453C292.964 33.5554 292.724 34.1229 292.834 34.2263C293.099 34.474 293.551 34.6085 293.931 34.6222C295.089 34.667 296.25 34.6163 297.407 34.6397C297.656 34.6456 297.998 34.7255 298.135 34.8991C299.053 36.079 299.918 37.2979 300.813 38.4953C302.611 40.9058 304.049 43.5815 306.197 45.7404C308.133 47.6847 310.349 48.7457 313.123 48.7242C315.018 48.7105 317.23 46.4483 317.114 44.6795C317.085 44.2368 317.015 43.796 316.965 43.3533C316.594 43.6146 316.196 43.8448 315.858 44.1451C315.111 44.8043 313.414 45.1495 312.872 44.6073C311.548 43.285 310.211 41.9628 309.027 40.5157C307.648 38.8308 306.433 37.0053 305.127 35.258C304.721 34.7158 304.798 34.4428 305.455 34.2497C306.019 34.0839 306.601 33.9279 307.12 33.6607C309.085 32.6486 310.414 31.1761 311.013 28.9139C311.695 26.3377 311.235 24.0891 309.572 22.1681C307.627 19.9195 304.957 19.1024 302.076 19.0302C299.47 18.9658 296.862 19.0165 294.254 19.0165L294.252 19.0185ZM230.97 45.1807C233.819 44.9096 237.378 45.6955 240.842 44.7614C242.088 44.4259 243.359 43.9384 244.433 43.2343C247.827 41.0091 249.054 37.5378 249.398 33.6724C249.593 31.4784 249.348 29.3156 248.749 27.1743C248.27 25.4601 247.449 23.9545 246.282 22.6771C245.182 21.4738 243.788 20.7015 242.24 20.1009C240.621 19.4729 239.006 19.0439 237.291 19.0321C233.721 19.0068 230.15 19.0224 226.58 19.0224C224.876 19.0224 223.171 19.0048 221.467 19.0361C221.19 19.0419 220.887 19.2174 220.661 19.3968C220.601 19.4436 220.777 19.8044 220.858 20.0151C221.117 20.6801 221.579 21.3354 221.61 22.0101C221.712 24.2782 221.629 26.5522 221.681 28.8222C221.708 29.9787 221.047 30.7237 220.304 31.3907C219.483 32.1279 219.407 32.3151 220.263 33.0074C221.167 33.7407 221.764 34.5656 221.7 35.8255C221.619 37.4461 221.612 39.0726 221.644 40.6932C221.67 41.9413 221.318 43.0803 220.839 44.1899C220.433 45.1319 220.425 45.1729 221.43 45.1768C224.39 45.1865 227.349 45.1807 230.966 45.1807H230.97ZM207.327 28.8963H207.321C207.321 30.9753 207.329 33.0562 207.31 35.1351C207.31 35.3574 207.157 35.5778 207.076 35.7982C206.881 35.6812 206.657 35.5953 206.498 35.4413C206.124 35.0785 205.78 34.6826 205.422 34.2984C202.37 31.0299 199.281 27.7964 196.283 24.4791C195.035 23.0984 193.545 21.8054 193.422 19.705C193.414 19.588 193.176 19.4046 193.031 19.3871C192.206 19.2954 191.38 19.2116 190.551 19.1862C189.326 19.1492 188.101 19.1862 186.876 19.1492C186.359 19.1336 185.895 19.6075 186.142 20.0502C187.149 21.86 187.209 23.8433 187.243 25.8345C187.257 26.679 187.243 27.5253 187.247 28.3698C187.255 29.7349 186.745 30.8115 185.611 31.6013C184.763 32.1922 184.825 32.5198 185.713 33.1127C186.625 33.7231 187.18 34.6397 187.222 35.7182C187.298 37.6977 187.321 39.6869 187.191 41.6625C187.131 42.5752 186.747 43.4996 186.353 44.346C186.034 45.0305 186.102 45.4615 186.884 45.4829C188.75 45.5336 190.618 45.5102 192.485 45.479C193.12 45.4673 193.317 44.8823 193 44.5273C191.948 43.3475 192.114 41.838 192.046 40.5274C191.851 36.7674 191.957 32.9918 191.963 29.222C191.963 28.9627 192.123 28.7052 192.208 28.4478C192.471 28.5687 192.803 28.6233 192.985 28.8203C194.36 30.3064 195.692 31.8353 197.063 33.3253C199.389 35.8489 201.734 38.3549 204.078 40.8609C204.926 41.7678 205.602 42.7877 205.753 44.032C205.832 44.6931 206.102 44.8316 206.665 44.8374C208.624 44.855 210.584 44.8998 212.543 44.9252C213.113 44.933 213.407 44.4786 213.061 44.032C212.109 42.8014 212.284 41.2919 212.074 39.9092C211.859 38.5129 212.033 37.0561 212.004 35.6265C211.977 34.3589 212.563 33.4287 213.531 32.7188C214.493 32.0128 214.502 31.8002 213.565 31.104C212.576 30.3688 211.989 29.4171 212.002 28.128C212.022 26.4391 212.012 24.7482 212.008 23.0574C212.006 21.8795 212.337 20.7951 212.899 19.7791C213.276 19.0985 213.134 18.6948 212.398 18.6811C210.596 18.646 208.794 18.6538 206.991 18.7006C206.288 18.7182 206.014 19.1882 206.33 19.7225C207.047 20.9297 207.333 22.2383 207.329 23.6308C207.323 25.386 207.329 27.1412 207.329 28.8963H207.327ZM122.802 34.6495C125.023 34.6495 127.245 34.6807 129.465 34.6319C130.243 34.6144 130.558 34.8036 130.487 35.646C130.299 37.8615 130.755 40.1159 130.095 42.308C129.898 42.9633 129.842 43.679 129.552 44.2855C129.148 45.1358 129.252 45.5005 130.143 45.5122C132.202 45.5375 134.264 45.5414 136.323 45.5297C137.073 45.5258 137.293 45.05 136.897 44.3889C136.806 44.2368 136.69 44.0807 136.665 43.915C136.396 42.2144 136.11 40.5157 135.906 38.8074C135.813 38.039 135.915 37.2491 135.883 36.469C135.819 34.944 136.379 33.7777 137.668 32.9411C138.365 32.4886 138.351 32.2644 137.662 31.7749C136.412 30.8895 135.786 29.7466 135.871 28.1592C135.956 26.5717 135.863 24.9745 135.91 23.3831C135.942 22.2617 136.209 21.1832 136.845 20.2276C137.256 19.6075 137.076 19.1297 136.352 19.116C134.26 19.077 132.168 19.0673 130.077 19.1277C129.237 19.1531 129.177 19.6114 129.606 20.3563C129.998 21.037 130.367 21.8327 130.408 22.5971C130.525 24.8009 130.464 27.0144 130.491 29.224C130.496 29.772 130.282 29.9631 129.745 29.9378C128.974 29.9007 128.199 29.928 127.427 29.93C123.692 29.93 119.958 29.9378 116.224 29.9319C115.15 29.9319 115.041 29.8168 115.041 28.7754C115.041 27.0202 114.945 25.2572 115.094 23.5137C115.186 22.4294 115.662 21.3783 115.955 20.3095C116.034 20.0229 116.214 19.6484 116.104 19.4573C115.984 19.2506 115.58 19.1121 115.302 19.116C114.359 19.1258 113.419 19.2525 112.478 19.2584C111.444 19.2642 110.413 19.157 109.379 19.1589C109.099 19.1589 108.755 19.3149 108.568 19.5178C108.477 19.6153 108.629 20.0287 108.765 20.2354C109.298 21.0467 109.615 21.9029 109.605 22.8955C109.588 24.7151 109.568 26.5366 109.644 28.3542C109.702 29.7447 109.201 30.7803 108.129 31.6189C107.393 32.1942 107.478 32.4691 108.251 33.1361C109.072 33.846 109.679 34.6729 109.632 35.884C109.565 37.6684 109.69 39.4665 109.547 41.2432C109.462 42.3002 109.111 43.3631 108.72 44.3616C108.415 45.1397 108.49 45.5102 109.337 45.5239C111.396 45.557 113.457 45.5512 115.517 45.5297C116.139 45.5239 116.434 44.9934 116.114 44.461C115.289 43.0998 115.331 41.526 115.115 40.0438C114.906 38.6123 115.082 37.1243 115.038 35.6636C115.014 34.9069 115.281 34.6261 116.044 34.6397C118.297 34.6768 120.551 34.6534 122.804 34.6534L122.802 34.6495ZM265.181 45.1807C268.4 45.1807 271.618 45.1807 274.837 45.1807C275.244 45.1807 275.606 45.206 275.872 44.7185C276.73 43.1524 277.661 41.6274 278.55 40.0789C278.648 39.9073 278.648 39.681 278.695 39.4782C278.451 39.4373 278.191 39.3183 277.966 39.371C277.089 39.5718 276.235 39.9151 275.351 40.0438C273.272 40.3422 271.186 40.6503 269.091 40.7654C266.621 40.8999 264.138 40.8278 261.661 40.8648C260.95 40.8746 260.811 40.4319 260.819 39.8761C260.836 38.3607 260.92 36.8454 260.894 35.3301C260.877 34.2477 261.124 33.9182 262.179 33.924C263.466 33.9299 264.762 33.8187 266.039 33.9416C267.745 34.1054 269.499 34.2516 271.11 34.7821C272.063 35.0941 272.321 34.866 272.685 34.1697C273.316 32.9567 273.971 31.7554 274.638 30.5618C275.063 29.8012 274.966 29.5965 274.099 29.5575C273.906 29.5477 273.712 29.5614 273.519 29.5614C269.594 29.5614 265.668 29.5614 261.742 29.5594C261.005 29.5594 260.732 29.2298 260.773 28.5999C260.86 27.2621 260.925 25.9203 260.931 24.5786C260.935 23.8433 261.165 23.502 261.777 23.5254C263.273 23.5801 264.77 23.6444 266.265 23.6327C267.283 23.6249 268.303 23.4279 269.319 23.4377C270.173 23.4455 271.031 23.6015 271.877 23.7439C273.382 23.9955 274.937 24.0423 276.32 24.8418C276.546 24.9725 276.925 24.8379 277.232 24.8243C277.174 24.5922 277.124 24.3601 277.058 24.132C276.757 23.0749 276.367 22.0335 276.166 20.959C275.865 19.3344 275.588 19.0341 273.991 19.0341C269.999 19.0341 266.01 19.0263 262.019 19.0243C259.799 19.0243 257.579 19.0243 255.358 19.0321C254.442 19.036 254.394 19.1726 254.776 19.9956C255.284 21.0857 255.692 22.2013 255.644 23.4552C255.588 24.9472 255.564 26.4469 255.653 27.9368C255.74 29.4073 255.101 30.4799 254.106 31.416C253.333 32.1415 253.294 32.3736 254.141 33.0016C255.219 33.8031 255.673 34.8484 255.638 36.1746C255.603 37.5378 255.721 38.9146 255.582 40.2642C255.448 41.5552 255.157 42.8462 254.776 44.0885C254.45 45.1514 254.386 45.1826 255.526 45.1846C258.744 45.1885 261.963 45.1846 265.179 45.1846L265.181 45.1807ZM156.144 29.5945V29.6218C154.245 29.6218 152.348 29.6296 150.449 29.614C150.14 29.6121 149.695 29.7876 149.705 29.1616C149.73 27.6034 149.736 26.0432 149.738 24.485C149.738 23.9623 149.937 23.7361 150.489 23.7536C153.727 23.8628 156.965 23.9447 160.203 24.0403C162.154 24.0988 164.105 24.1417 165.858 25.2221C166.039 25.3333 166.412 25.1948 166.659 25.0876C166.737 25.0544 166.75 24.7248 166.702 24.5591C166.358 23.3967 165.958 22.2481 165.633 21.0799C165.139 19.2876 165.017 19.1648 163.153 19.2018C162.328 19.2174 161.503 19.3403 160.682 19.3208C159.223 19.2876 157.769 19.1433 156.312 19.118C154.587 19.0887 152.862 19.118 151.137 19.1511C149.172 19.1882 147.209 19.2564 145.246 19.3071C145.152 19.3091 145.057 19.2525 144.962 19.2545C144.53 19.2662 144.095 19.272 143.662 19.3091C142.992 19.3676 143.034 19.8493 143.303 20.2003C144.209 21.3802 144.147 22.7961 144.296 24.1417C144.416 25.2338 144.313 26.3494 144.338 27.4532C144.379 29.2064 143.977 30.7686 142.443 31.7963C141.819 32.2156 142.01 32.631 142.424 32.9138C143.981 33.9747 144.429 35.4978 144.321 37.2686C144.24 38.585 144.07 39.8975 144.014 41.2139C143.964 42.3723 143.834 43.482 143.231 44.5098C142.94 45.0051 143.239 45.5005 143.832 45.5083C145.924 45.5395 148.017 45.5434 150.107 45.52C150.706 45.5122 150.841 45.0753 150.642 44.5039C150.312 43.5581 149.904 42.5888 149.842 41.6098C149.705 39.4412 149.777 37.2589 149.736 35.0824C149.724 34.4681 149.916 34.2302 150.565 34.2477C152.205 34.2926 153.855 34.1717 155.487 34.2965C156.697 34.3882 157.933 34.6339 159.067 35.0551C159.875 35.3535 160.261 34.9908 160.57 34.5013C161.287 33.3662 161.922 32.1766 162.56 30.9928C163.151 29.8929 162.973 29.5965 161.743 29.5906C159.876 29.5809 158.01 29.5887 156.144 29.5887V29.5945ZM63.752 19.3442V19.3344C62.7551 19.3344 61.7583 19.3266 60.7614 19.3364C59.8882 19.3442 59.8805 19.4768 60.0408 20.3232C60.1703 21.0038 60.2185 21.8015 59.9887 22.4314C59.3357 24.2236 58.5339 25.9593 57.7709 27.7087C57.0908 29.2669 56.2196 30.6047 54.3031 30.7705C54.1409 30.7842 53.9148 31.2113 53.9013 31.457C53.8878 31.7125 54.0829 31.9874 54.2046 32.2449C54.6238 33.1225 55.016 34.0644 54.6026 34.9947C53.5285 37.411 52.3713 39.7942 51.2063 42.1676C50.8354 42.9223 50.3389 43.6146 49.8907 44.3284C49.7284 44.5878 49.5372 44.8277 49.3575 45.0773C49.6898 45.2138 50.0163 45.4478 50.3544 45.4673C51.3937 45.5258 52.4389 45.5005 53.4802 45.5063C53.6077 45.5063 53.7371 45.4888 53.8646 45.4868C54.3881 45.4771 54.9349 45.561 55.4294 45.4381C55.837 45.3367 56.1867 44.9934 56.5615 44.7575C56.0553 44.0963 56.4456 43.4664 56.6426 42.8423C57.0966 41.4031 57.5023 39.9424 58.0626 38.546C58.8295 36.6407 59.7375 34.7919 60.5586 32.9079C61.4936 30.7569 62.3919 28.5902 63.3269 26.4391C63.4428 26.1719 63.6843 25.9574 63.8659 25.7194C64.0282 25.9944 64.2175 26.2558 64.345 26.5444C64.9555 27.9173 65.5196 29.3117 66.1552 30.673C66.9531 32.3814 67.8572 34.0391 68.6145 35.765C69.509 37.801 70.3281 39.8741 71.1105 41.9569C71.3829 42.6805 71.6475 43.5054 71.5606 44.2426C71.4563 45.1378 71.5452 45.5024 72.4763 45.4966C72.9496 45.4927 73.4229 45.3386 73.8943 45.3464C75.3993 45.3737 76.9023 45.4634 78.4053 45.4771C78.6313 45.479 78.9752 45.2509 79.0524 45.048C79.122 44.8686 78.9288 44.5527 78.7936 44.3343C78.3859 43.677 77.8817 43.0725 77.5378 42.384C76.4676 40.2388 75.4649 38.0624 74.4179 35.9054C73.7803 34.5929 73.8499 33.2921 74.4971 32.0303C74.9684 31.1098 74.8506 30.9285 73.817 30.7042C72.7835 30.4799 71.8407 30.0041 71.3191 28.9744C70.3145 26.9871 69.2501 25.0271 68.344 22.993C67.9151 22.0296 67.7509 20.9336 67.5616 19.8785C67.4689 19.3637 67.1946 19.352 66.8294 19.352C65.7997 19.352 64.772 19.352 63.7423 19.352L63.752 19.3442ZM91.8608 45.5122V45.5063C92.8905 45.5063 93.9202 45.5278 94.9499 45.4985C95.6318 45.479 95.9564 45.0032 95.6395 44.4864C94.7721 43.0725 94.7122 41.4635 94.5732 39.8975C94.4534 38.5441 94.5519 37.1692 94.5442 35.806C94.5384 34.7294 95.0561 33.8948 95.8598 33.3058C96.7948 32.6213 96.8199 32.1805 95.9564 31.4804C94.9634 30.673 94.4862 29.6374 94.5171 28.3464C94.5461 27.1119 94.548 25.8774 94.5422 24.6429C94.5384 24.0481 94.7586 23.7361 95.3884 23.7458C96.675 23.7653 97.9675 23.6951 99.2502 23.7887C100.073 23.8492 100.927 24.0189 101.485 24.7892C101.889 25.345 102.279 25.3353 102.614 24.7385C103.496 23.1627 104.364 21.5772 105.22 19.9839C105.604 19.2701 105.43 18.9756 104.619 19.0185C103.147 19.0965 101.681 19.2681 100.208 19.3149C99.1536 19.35 98.095 19.2057 97.0382 19.2135C95.2493 19.2272 93.4585 19.3617 91.6695 19.3286C88.6964 19.274 85.7251 19.1453 82.7558 18.999C82.1203 18.9678 81.7455 19.1589 81.5059 19.7323C80.8529 21.2905 80.1729 22.837 79.5451 24.403C79.4968 24.522 79.7344 24.8867 79.8947 24.9335C80.1111 24.9959 80.3874 24.8711 80.6308 24.8067C81.9348 24.4596 83.2195 23.9799 84.5467 23.7887C85.7445 23.6171 86.9886 23.7809 88.2115 23.7497C88.9494 23.7302 89.1581 24.0735 89.1426 24.758C89.1098 26.1875 89.1871 27.6209 89.0905 29.0446C89.0518 29.6199 88.7447 30.2127 88.4336 30.7198C88.169 31.1527 87.7188 31.4687 87.3576 31.8412C86.8514 32.3619 86.8881 32.711 87.487 33.062C88.5322 33.6744 89.1349 34.5481 89.1253 35.806C89.1117 37.4949 89.2238 39.1954 89.0712 40.8726C88.963 42.0486 88.5013 43.1895 88.2037 44.3479C88.1323 44.6248 87.9642 44.9622 88.0569 45.1748C88.1381 45.3601 88.5225 45.4907 88.7775 45.5005C89.8072 45.5356 90.8369 45.5161 91.8666 45.5161L91.8608 45.5122ZM175.778 45.5356V45.5434C176.904 45.5434 178.03 45.5668 179.153 45.5258C179.396 45.518 179.703 45.3328 179.839 45.1319C179.914 45.0188 179.715 44.6951 179.605 44.4844C179.475 44.2348 179.226 44.0242 179.17 43.7668C178.884 42.4328 178.56 41.0989 178.413 39.7474C178.287 38.5928 178.413 37.411 178.372 36.2448C178.324 34.8621 178.921 33.8518 180.005 33.0757C180.853 32.4691 180.859 32.358 180.057 31.7476C178.938 30.8934 178.241 29.8695 178.363 28.3483C178.457 27.1548 178.434 25.9457 178.368 24.7482C178.272 22.9716 178.521 21.312 179.636 19.8629C179.732 19.7381 179.788 19.4066 179.728 19.3676C179.549 19.2428 179.303 19.1531 179.085 19.157C178.809 19.1628 178.535 19.3364 178.262 19.3266C176.879 19.2779 175.496 19.1784 174.112 19.1316C173.61 19.116 173.1 19.1823 172.6 19.2486C172.26 19.2935 171.928 19.4046 171.593 19.4866C171.682 19.7654 171.698 20.1048 171.87 20.3115C172.735 21.3549 172.957 22.5757 172.948 23.8823C172.936 25.3762 172.895 26.872 172.961 28.362C173.019 29.6725 172.55 30.6613 171.57 31.4882C170.591 32.3151 170.623 32.5764 171.628 33.3487C172.478 34.0001 173 34.8387 172.94 35.9464C172.832 37.9727 172.752 40.0048 172.544 42.0213C172.463 42.8131 172.074 43.5737 171.817 44.346C171.732 44.6014 171.483 45.0246 171.537 45.0636C171.815 45.2762 172.163 45.5005 172.495 45.5161C173.585 45.5707 174.68 45.5356 175.774 45.5356H175.778ZM176.017 18.0317C176.236 17.8191 176.402 17.6631 176.564 17.5012C177.422 16.6451 178.274 15.7792 179.141 14.9308C179.757 14.3282 179.761 13.8894 179.141 13.2888C178.326 12.4989 177.516 11.7032 176.717 10.8958C176.091 10.264 175.832 10.2503 175.167 10.8783C174.304 11.6954 173.44 12.5145 172.579 13.3336C171.958 13.9245 172.009 14.3789 172.644 14.9601C173.566 15.8026 174.437 16.6997 175.341 17.5617C175.513 17.7255 175.733 17.8386 176.015 18.0336L176.017 18.0317ZM67.6138 38.9244C67.4109 38.7371 67.2583 38.6084 67.1192 38.468C66.2112 37.5417 65.2955 36.6212 64.403 35.6812C64.0012 35.256 63.6225 35.2443 63.2207 35.646C62.2837 36.5841 61.3738 37.5514 60.4098 38.4583C59.9056 38.9322 59.9964 39.3047 60.4175 39.722C61.3371 40.6367 62.2818 41.526 63.1647 42.4738C63.6013 42.9438 63.9239 42.9457 64.345 42.4991C65.2453 41.5435 66.1707 40.6113 67.0767 39.6596C67.2622 39.4646 67.3974 39.2247 67.6138 38.9263V38.9244ZM317.471 35.9639C317.381 35.8586 317.307 35.7611 317.222 35.6753C316.152 34.589 315.101 33.4794 313.982 32.4457C313.803 32.28 313.177 32.3151 312.984 32.5003C311.973 33.4716 311.058 34.5422 310.067 35.5349C309.692 35.9093 309.773 36.1238 310.101 36.4437C311.069 37.3876 312.012 38.3549 312.966 39.3125C313.376 39.724 313.735 39.6888 314.154 39.2715C315.105 38.3276 316.098 37.4285 317.064 36.5022C317.216 36.3559 317.323 36.1629 317.471 35.9639V35.9639Z" fill="white"/>
<path d="M11.0138 60.8077C9.82375 60.0862 9.67113 59.4562 10.5849 58.6996C10.8476 58.4831 11.3345 58.487 11.7131 58.5026C11.829 58.5065 11.9295 58.8887 12.0377 59.0955C11.8232 59.1637 11.6127 59.2495 11.3924 59.2944C11.1606 59.3412 10.9211 59.3451 10.6834 59.3685C10.7279 59.6084 10.7665 59.8482 10.8148 60.0881C10.867 60.3377 10.9269 60.5854 10.9829 60.8351L11.0119 60.8097L11.0138 60.8077Z" fill="white"/>
<path d="M232.82 40.8356C231.211 40.8356 229.6 40.8064 227.992 40.8493C227.314 40.8668 227.059 40.6211 227.069 39.9541C227.092 38.5246 227.027 37.0912 227.102 35.6656C227.168 34.4292 227.906 33.5067 228.817 32.75C229.48 32.2001 229.465 32.1201 228.856 31.496C228.288 30.9149 227.805 30.244 227.338 29.5731C227.171 29.3352 227.1 28.9842 227.094 28.6838C227.069 27.2875 227.102 25.8892 227.069 24.4928C227.054 23.8473 227.307 23.6659 227.923 23.6562C229.685 23.6328 231.447 23.4826 233.209 23.4943C234.98 23.506 236.757 23.584 238.519 23.7576C241.009 24.0033 243.104 26.1368 243.718 28.5707C244.23 30.6028 244.195 32.6408 243.981 34.6476C243.714 37.1439 242.653 39.3184 240.148 40.3305C239.342 40.6543 238.425 40.781 237.549 40.8239C235.975 40.9 234.397 40.8454 232.818 40.8454V40.8376L232.82 40.8356Z" fill="white"/>
<path d="M317.792 31.4706C317.924 31.2541 318.02 31.0064 318.194 30.8329C318.407 30.6183 318.764 30.2673 318.909 30.3297C319.233 30.4701 319.475 30.8192 319.714 31.1137C319.736 31.139 319.5 31.4998 319.374 31.5057C318.839 31.5291 318.302 31.4764 317.765 31.4511L317.792 31.4706V31.4706Z" fill="white"/>
<path d="M317.072 30.751C317.072 29.9592 317.072 29.1674 317.073 28.3756C318.124 29.261 318.122 30.0586 317.072 30.751Z" fill="white"/>
<path d="M320.586 28.4557C320.586 29.1032 320.593 29.7506 320.578 30.3981C320.576 30.4976 320.458 30.5912 320.394 30.6887C320.319 30.6068 320.193 30.5327 320.174 30.4391C320.081 29.9808 319.61 29.5361 320.145 29.0407C320.269 28.9257 320.249 28.6527 320.296 28.4518L320.588 28.4557H320.586Z" fill="white"/>
</g>
<defs>
<clipPath id="clip0_1436_80609">
<rect width="325" height="70.2" fill="white"/>
</clipPath>
</defs>
</svg>
