<?xml version="1.0" encoding="UTF-8" standalone="no"?><!DOCTYPE svg PUBLIC "-//W3C//DTD SVG 1.1//EN" "http://www.w3.org/Graphics/SVG/1.1/DTD/svg11.dtd"><svg width="100%" height="100%" viewBox="0 0 508 512" version="1.1" xmlns="http://www.w3.org/2000/svg" xmlns:xlink="http://www.w3.org/1999/xlink" xml:space="preserve" xmlns:serif="http://www.serif.com/" style="fill-rule:evenodd;clip-rule:evenodd;stroke-linejoin:round;stroke-miterlimit:2;"><path d="M350.712,0l1.24,0c3.74,0.513 6.283,1.443 7.63,2.79c46.86,46.86 93.73,93.713 140.61,140.56c3.066,3.067 5.03,5.577 5.89,7.53c3.73,8.46 -1.7,14.5 -8.74,19.53c-14.947,10.68 -31.404,11.893 -49.37,3.64c-0.274,-0.127 -0.507,-0.077 -0.7,0.15l-127.48,148.51c-0.184,0.219 -0.184,0.541 -0,0.76c20.35,23.85 20.62,57.08 0.77,81.23c-3.17,3.86 -6.14,7.26 -11.05,8.3c-4.747,1 -8.874,-0.253 -12.38,-3.76c-26.78,-26.807 -53.58,-53.613 -80.4,-80.42c-0.132,-0.131 -0.348,-0.131 -0.48,0c-25.167,25.18 -50.364,50.373 -75.59,75.58c-39.26,39.24 -74.38,68.82 -118.56,104.07c-2.42,1.927 -5.19,3.103 -8.31,3.53l-1.39,0c-10.13,-1.11 -16.24,-12.16 -9.68,-20.67c28.233,-36.627 58.29,-71.68 90.17,-105.16c3.88,-4.067 8.546,-8.83 14,-14.29c25.34,-25.347 50.676,-50.7 76.01,-76.06c0.253,-0.26 0.253,-0.517 -0,-0.77c-27.514,-27.647 -55.064,-55.207 -82.65,-82.68c-2.867,-2.86 -4.657,-5.3 -5.37,-7.32c-1.87,-5.35 -0.51,-10.21 3.57,-14.39c7.626,-7.827 16.213,-13.117 25.76,-15.87c21.913,-6.307 41.79,-2.06 59.63,12.74c0.273,0.227 0.546,0.223 0.82,-0.01l148.67,-127.61c0.204,-0.173 0.258,-0.47 0.13,-0.71c-9.98,-18.47 -6.09,-40.66 8.7,-55.39c2.126,-2.113 4.976,-3.383 8.55,-3.81Z" style="fill-rule:nonzero;"/></svg>