<?xml version="1.0" encoding="UTF-8" standalone="no"?>
<!-- Svg Vector Icons : http://www.onlinewebfonts.com/icon -->

<svg
   version="1.1"
   x="0px"
   y="0px"
   viewBox="0 0 236.01245 235.94995"
   enable-background="new 0 0 256 256"
   xml:space="preserve"
   id="svg2"
   sodipodi:docname="search.svg"
   inkscape:export-filename="..\..\Documents\Roll20\roll20-private-sheets\UIKit\pages\pathfinder\imgs\search.svg"
   inkscape:export-xdpi="96"
   inkscape:export-ydpi="96"
   width="236.01245"
   height="235.94995"
   xmlns:inkscape="http://www.inkscape.org/namespaces/inkscape"
   xmlns:sodipodi="http://sodipodi.sourceforge.net/DTD/sodipodi-0.dtd"
   xmlns="http://www.w3.org/2000/svg"
   xmlns:svg="http://www.w3.org/2000/svg"><defs
   id="defs2" /><sodipodi:namedview
   id="namedview2"
   pagecolor="#ffffff"
   bordercolor="#000000"
   borderopacity="0.25"
   inkscape:showpageshadow="2"
   inkscape:pageopacity="0.0"
   inkscape:pagecheckerboard="0"
   inkscape:deskcolor="#d1d1d1"
   showgrid="false" />&#10;<metadata
   id="metadata1"> Svg Vector Icons : http://www.onlinewebfonts.com/icon </metadata>&#10;<g
   id="g2"
   transform="translate(-10.000007,-9.9999908)"><g
     id="g1"><path
       fill="#000000"
       d="m 239.5,239.5 c -8.6,8.6 -22.7,8.6 -31.4,0 L 169,200.4 c -16.1,10.3 -35.1,16.5 -55.6,16.5 C 56.3,216.9 10,170.6 10,113.4 10,56.3 56.3,10 113.4,10 c 57.1,0 103.4,46.3 103.4,103.4 0,20.5 -6.2,39.5 -16.5,55.6 l 39.1,39.1 c 8.8,8.7 8.8,22.8 0.1,31.4 z M 113.4,39.6 c -40.8,0 -73.9,33.1 -73.9,73.9 0,40.8 33.1,73.9 73.9,73.9 40.8,0 73.9,-33.1 73.9,-73.9 0,-40.9 -33.1,-73.9 -73.9,-73.9 z"
       id="path1" /></g></g>&#10;</svg>
