<?xml version="1.0" encoding="UTF-8" standalone="no"?><!DOCTYPE svg PUBLIC "-//W3C//DTD SVG 1.1//EN" "http://www.w3.org/Graphics/SVG/1.1/DTD/svg11.dtd"><svg width="100%" height="100%" viewBox="0 0 498 475" version="1.1" xmlns="http://www.w3.org/2000/svg" xmlns:xlink="http://www.w3.org/1999/xlink" xml:space="preserve" xmlns:serif="http://www.serif.com/" style="fill-rule:evenodd;clip-rule:evenodd;stroke-linejoin:round;stroke-miterlimit:2;"><path d="M265.616,10.484c-3.169,-6.42 -9.707,-10.484 -16.866,-10.484c-7.159,0 -13.697,4.065 -16.866,10.485l-66.675,135.109c-34.601,5.028 -149.105,21.666 -149.105,21.666c-7.085,1.03 -12.971,5.992 -15.183,12.801c-2.212,6.808 -0.367,14.282 4.759,19.28c0,-0 82.858,80.765 107.895,105.17c-5.911,34.459 -25.474,148.484 -25.474,148.484c-1.21,7.056 1.69,14.187 7.481,18.396c5.792,4.208 13.47,4.763 19.807,1.433l133.361,-70.099c0,0 133.364,70.099 133.364,70.099c6.336,3.33 14.015,2.775 19.806,-1.433c5.791,-4.209 8.691,-11.34 7.481,-18.395l-25.473,-148.485c-0,0 107.894,-105.171 107.894,-105.171c5.127,-4.997 6.971,-12.471 4.759,-19.279c-2.212,-6.809 -8.098,-11.771 -15.182,-12.801l-149.105,-21.666c-0,0 -66.678,-135.11 -66.678,-135.11Z" style="fill:#1d1d1b;fill-rule:nonzero;"/></svg>